# xmcd
#
# Track frame offsets:
#	150
#	59632
#	98464
#	119732
#	164447
#	206047
#	236447
#	276249
#
# Disc length: 3959 seconds
#
# Revision: 1
# Processed by: cddbd v1.4PL0 Copyright (c) Steve Scherf et al.
# Submitted via: audiograbber 1.81.03
#
DISCID=740f7508
DTITLE=Mick Taylor - Back At The Village [CD2]
DYEAR=2000
DGENRE=Blues
TTITLE0=You Gotta Move
TTITLE1=Giddy Up
TTITLE2=Morning Comes
TTITLE3=Blind Willie McTell
TTITLE4=You Shook Me
TTITLE5=Boogie Man
TTITLE6=Can't You Hear Me Knockin'
TTITLE7=Fed Up With The Blues
EXTD=
EXTT0=
EXTT1=
EXTT2=
EXTT3=
EXTT4=
EXTT5=
EXTT6=
EXTT7=
PLAYORDER=
